<?xml version="1.0" encoding="UTF-8"?>
<!--Generator: Apple Native CoreSVG 232.5-->
<!DOCTYPE svg
PUBLIC "-//W3C//DTD SVG 1.1//EN"
       "http://www.w3.org/Graphics/SVG/1.1/DTD/svg11.dtd">
<svg version="1.1" xmlns="http://www.w3.org/2000/svg" xmlns:xlink="http://www.w3.org/1999/xlink" width="34.1447" height="22.2781">
 <g>
  <rect height="22.2781" opacity="0" width="34.1447" x="0" y="0"/>
  <path d="M13.5886 10.3822L20.5403 10.3822C21.52 10.3822 22.2623 9.64971 22.2623 8.66631L22.2623 1.72266C22.2623 0.739259 21.52 0 20.5403 0L13.5886 0C12.6089 0 11.8831 0.739259 11.8831 1.72266L11.8831 8.66631C11.8831 9.64971 12.6089 10.3822 13.5886 10.3822ZM13.5886 9.30498C13.2267 9.30498 12.9634 9.03193 12.9634 8.66631L12.9634 1.72266C12.9634 1.35029 13.2267 1.08028 13.5886 1.08028L20.5403 1.08028C20.912 1.08028 21.1851 1.35029 21.1851 1.72266L21.1851 8.66631C21.1851 9.03193 20.912 9.30498 20.5403 9.30498ZM1.70244 22.2684L8.65723 22.2684C9.63692 22.2684 10.3792 21.5291 10.3792 20.5427L10.3792 13.6088C10.3792 12.6224 9.63692 11.8764 8.65723 11.8764L1.70244 11.8764C0.725782 11.8764 0 12.6224 0 13.6088L0 20.5427C0 21.5291 0.725782 22.2684 1.70244 22.2684ZM1.70244 21.1881C1.34356 21.1881 1.07725 20.9181 1.07725 20.5427L1.07725 13.6088C1.07725 13.2267 1.34356 12.9566 1.70244 12.9566L8.65723 12.9566C9.02891 12.9566 9.29893 13.2267 9.29893 13.6088L9.29893 20.5427C9.29893 20.9181 9.02891 21.1881 8.65723 21.1881ZM25.4815 22.2684L32.4362 22.2684C33.4159 22.2684 34.1447 21.5291 34.1447 20.5427L34.1447 13.6088C34.1447 12.6224 33.4159 11.8764 32.4362 11.8764L25.4815 11.8764C24.5048 11.8764 23.7655 12.6224 23.7655 13.6088L23.7655 20.5427C23.7655 21.5291 24.5048 22.2684 25.4815 22.2684ZM25.4815 21.1881C25.1158 21.1881 24.8458 20.9181 24.8458 20.5427L24.8458 13.6088C24.8458 13.2267 25.1158 12.9566 25.4815 12.9566L32.4362 12.9566C32.8012 12.9566 33.0645 13.2267 33.0645 13.6088L33.0645 20.5427C33.0645 20.9181 32.8012 21.1881 32.4362 21.1881Z" fill="#000000" fill-opacity="0.85"/>
  <path d="M13.5886 22.2684L20.5403 22.2684C21.52 22.2684 22.2623 21.5291 22.2623 20.5427L22.2623 13.6088C22.2623 12.6224 21.52 11.8764 20.5403 11.8764L13.5886 11.8764C12.6089 11.8764 11.8831 12.6224 11.8831 13.6088L11.8831 20.5427C11.8831 21.5291 12.6089 22.2684 13.5886 22.2684Z" fill="#000000" fill-opacity="0.85"/>
  <path d="M16.6263 19.289L14.3207 15.4095C14.1196 15.0568 14.3312 14.6473 14.6942 14.6473L19.464 14.6473C19.8106 14.6473 20.0325 15.0696 19.8247 15.4095L17.4929 19.2957C17.2955 19.6214 16.8236 19.6147 16.6263 19.289Z" fill="#ffffff"/>
 </g>
</svg>
