<?xml version="1.0" encoding="UTF-8"?>
<!--Generator: Apple Native CoreSVG 232.5-->
<!DOCTYPE svg
PUBLIC "-//W3C//DTD SVG 1.1//EN"
       "http://www.w3.org/Graphics/SVG/1.1/DTD/svg11.dtd">
<svg version="1.1" xmlns="http://www.w3.org/2000/svg" xmlns:xlink="http://www.w3.org/1999/xlink" width="34.1405" height="22.2743">
 <g>
  <rect height="22.2743" opacity="0" width="34.1405" x="0" y="0"/>
  <path d="M1.70467 22.2619L8.66061 22.2619C9.63133 22.2619 10.3777 21.5265 10.3777 20.5433L10.3777 13.604C10.3777 12.6209 9.63133 11.8786 8.66061 11.8786L1.70467 11.8786C0.728421 11.8786 0 12.6209 0 13.604L0 20.5433C0 21.5265 0.728421 22.2619 1.70467 22.2619ZM1.70467 21.1856C1.34067 21.1856 1.0763 20.9143 1.0763 20.5433L1.0763 13.604C1.0763 13.2262 1.34067 12.9549 1.70467 12.9549L8.66061 12.9549C9.03016 12.9549 9.30144 13.2262 9.30144 13.604L9.30144 20.5433C9.30144 20.9143 9.03016 21.1856 8.66061 21.1856ZM13.5833 22.2619L20.5323 22.2619C21.5099 22.2619 22.2563 21.5265 22.2563 20.5433L22.2563 13.604C22.2563 12.6209 21.5099 11.8786 20.5323 11.8786L13.5833 11.8786C12.607 11.8786 11.8786 12.6209 11.8786 13.604L11.8786 20.5433C11.8786 21.5265 12.607 22.2619 13.5833 22.2619ZM13.5833 21.1856C13.2192 21.1856 12.9549 20.9143 12.9549 20.5433L12.9549 13.604C12.9549 13.2262 13.2192 12.9549 13.5833 12.9549L20.5323 12.9549C20.9032 12.9549 21.1731 13.2262 21.1731 13.604L21.1731 20.5433C21.1731 20.9143 20.9032 21.1856 20.5323 21.1856ZM25.4743 22.2619L32.4234 22.2619C33.401 22.2619 34.1405 21.5265 34.1405 20.5433L34.1405 13.604C34.1405 12.6209 33.401 11.8786 32.4234 11.8786L25.4743 11.8786C24.4912 11.8786 23.7628 12.6209 23.7628 13.604L23.7628 20.5433C23.7628 21.5265 24.4912 22.2619 25.4743 22.2619ZM25.4743 21.1856C25.1102 21.1856 24.839 20.9143 24.839 20.5433L24.839 13.604C24.839 13.2262 25.1102 12.9549 25.4743 12.9549L32.4234 12.9549C32.7942 12.9549 33.0572 13.2262 33.0572 13.604L33.0572 20.5433C33.0572 20.9143 32.7942 21.1856 32.4234 21.1856Z" fill="#000000" fill-opacity="0.85"/>
  <path d="M13.5833 10.3833L20.5323 10.3833C21.5099 10.3833 22.2563 9.64793 22.2563 8.66475L22.2563 1.72547C22.2563 0.742283 21.5099 0 20.5323 0L13.5833 0C12.607 0 11.8786 0.742283 11.8786 1.72547L11.8786 8.66475C11.8786 9.64793 12.607 10.3833 13.5833 10.3833Z" fill="#000000" fill-opacity="0.85"/>
  <path d="M14.6786 7.61949C14.3282 7.61949 14.108 7.19844 14.3199 6.85635L16.6139 2.97848C16.8119 2.65165 17.2911 2.64473 17.4836 2.97156L19.815 6.85635C20.0214 7.1929 19.7998 7.61949 19.4563 7.61949Z" fill="#FFFFFF"/>
 </g>
</svg>
