<?xml version="1.0" encoding="UTF-8"?>
<!--Generator: Apple Native CoreSVG 232.5-->
<!DOCTYPE svg
PUBLIC "-//W3C//DTD SVG 1.1//EN"
       "http://www.w3.org/Graphics/SVG/1.1/DTD/svg11.dtd">
<svg version="1.1" xmlns="http://www.w3.org/2000/svg" xmlns:xlink="http://www.w3.org/1999/xlink" width="17.6818" height="17.7074">
 <g>
  <rect height="17.7074" opacity="0" width="17.6818" x="0" y="0"/>
  <path d="M2.87871 17.7074L14.8001 17.7074C16.7147 17.7074 17.6818 16.7312 17.6818 14.8526L17.6818 2.88037C17.6818 1.00186 16.7147 0.0255859 14.8001 0.0255859L2.87871 0.0255859C0.973926 0.0255859 0 0.986035 0 2.88037L0 14.8526C0 16.747 0.973926 17.7074 2.87871 17.7074Z" fill="#000000" fill-opacity="0.85"/>
  <path d="M6.15459 13.2805C5.76113 13.2805 5.55127 13.0039 5.55127 12.5812L5.55127 5.00059C5.55127 4.58086 5.76113 4.3043 6.15459 4.3043L8.73203 4.3043C11.4622 4.3043 13.0298 5.93145 13.0298 8.76191C13.0298 11.6738 11.448 13.2805 8.73203 13.2805ZM6.7626 12.2848L8.59561 12.2848C10.5985 12.2848 11.7599 11.1109 11.7599 8.78516C11.7599 6.55059 10.5888 5.29697 8.59561 5.29697L6.7626 5.29697Z" fill="#ffffff"/>
 </g>
</svg>
