<?xml version="1.0" encoding="UTF-8"?>
<!--Generator: Apple Native CoreSVG 232.5-->
<!DOCTYPE svg
PUBLIC "-//W3C//DTD SVG 1.1//EN"
       "http://www.w3.org/Graphics/SVG/1.1/DTD/svg11.dtd">
<svg version="1.1" xmlns="http://www.w3.org/2000/svg" xmlns:xlink="http://www.w3.org/1999/xlink" width="17.6818" height="17.7074">
 <g>
  <rect height="17.7074" opacity="0" width="17.6818" x="0" y="0"/>
  <path d="M2.87871 17.7074L14.8001 17.7074C16.7147 17.7074 17.6818 16.7312 17.6818 14.8526L17.6818 2.88037C17.6818 1.00186 16.7147 0.0255859 14.8001 0.0255859L2.87871 0.0255859C0.973926 0.0255859 0 0.986035 0 2.88037L0 14.8526C0 16.747 0.973926 17.7074 2.87871 17.7074Z" fill="#000000" fill-opacity="0.85"/>
  <path d="M6.5041 13.2805C6.10391 13.2805 5.90078 13.0039 5.90078 12.5812L5.90078 5.00059C5.90078 4.58086 6.10391 4.3043 6.5041 4.3043L11.2728 4.3043C11.5877 4.3043 11.7945 4.49629 11.7945 4.81934C11.7945 5.12588 11.5877 5.34414 11.2728 5.34414L7.14278 5.34414L7.14278 8.20615L11.0212 8.20615C11.3392 8.20615 11.546 8.39443 11.546 8.71748C11.546 9.01729 11.3392 9.2086 11.0212 9.2086L7.14278 9.2086L7.14278 12.2406L11.2728 12.2406C11.5877 12.2406 11.7945 12.4424 11.7945 12.7624C11.7945 13.075 11.5877 13.2805 11.2728 13.2805Z" fill="#ffffff"/>
 </g>
</svg>
