<?xml version="1.0" encoding="UTF-8"?>
<!--Generator: Apple Native CoreSVG 232.5-->
<!DOCTYPE svg
PUBLIC "-//W3C//DTD SVG 1.1//EN"
       "http://www.w3.org/Graphics/SVG/1.1/DTD/svg11.dtd">
<svg version="1.1" xmlns="http://www.w3.org/2000/svg" xmlns:xlink="http://www.w3.org/1999/xlink" width="17.6818" height="17.7074">
 <g>
  <rect height="17.7074" opacity="0" width="17.6818" x="0" y="0"/>
  <path d="M2.87871 17.7074L14.8001 17.7074C16.7147 17.7074 17.6818 16.7312 17.6818 14.8526L17.6818 2.88037C17.6818 1.00186 16.7147 0.0255859 14.8001 0.0255859L2.87871 0.0255859C0.973926 0.0255859 0 0.986035 0 2.88037L0 14.8526C0 16.747 0.973926 17.7074 2.87871 17.7074Z" fill="#000000" fill-opacity="0.85"/>
  <path d="M8.84277 13.4755C6.34639 13.4755 4.64404 11.5529 4.64404 8.77842C4.64404 6.01836 6.34639 4.09951 8.84277 4.09951C11.3422 4.09951 13.0445 6.01836 13.0445 8.77842C13.0445 10.4854 12.4014 11.8556 11.3359 12.6523L12.0171 13.5779C12.1603 13.7743 12.2067 13.8733 12.2067 14.0135C12.2067 14.2863 12.0171 14.482 11.7314 14.482C11.529 14.482 11.3919 14.4086 11.2359 14.1957L10.4753 13.1613C9.99375 13.362 9.44385 13.4755 8.84277 13.4755ZM8.84277 12.4626C9.22354 12.4626 9.55078 12.4084 9.84336 12.297L9.19766 11.4022C9.08818 11.2499 9.03867 11.1337 9.03867 11.0003C9.03867 10.7416 9.25459 10.5422 9.51699 10.5422C9.70596 10.5422 9.82588 10.6021 9.95489 10.7709L10.6733 11.7513C11.3918 11.1276 11.8025 10.0774 11.8025 8.77842C11.8025 6.57246 10.6247 5.1124 8.84277 5.1124C7.07061 5.1124 5.89278 6.57246 5.89278 8.77842C5.89278 11.0025 7.07061 12.4626 8.84277 12.4626Z" fill="#ffffff"/>
 </g>
</svg>
