<?xml version="1.0" encoding="UTF-8"?>
<!--Generator: Apple Native CoreSVG 232.5-->
<!DOCTYPE svg
PUBLIC "-//W3C//DTD SVG 1.1//EN"
       "http://www.w3.org/Graphics/SVG/1.1/DTD/svg11.dtd">
<svg version="1.1" xmlns="http://www.w3.org/2000/svg" xmlns:xlink="http://www.w3.org/1999/xlink" width="17.6818" height="17.7074">
 <g>
  <rect height="17.7074" opacity="0" width="17.6818" x="0" y="0"/>
  <path d="M2.87871 17.7074L14.8001 17.7074C16.7147 17.7074 17.6818 16.7312 17.6818 14.8526L17.6818 2.88037C17.6818 1.00186 16.7147 0.0255859 14.8001 0.0255859L2.87871 0.0255859C0.973926 0.0255859 0 0.986035 0 2.88037L0 14.8526C0 16.747 0.973926 17.7074 2.87871 17.7074Z" fill="#000000" fill-opacity="0.85"/>
  <path d="M8.76631 13.4755C7.03633 13.4755 5.8126 12.6201 5.4876 11.5965C5.42764 11.4321 5.39766 11.2934 5.39766 11.1613C5.39766 10.8097 5.62705 10.59 5.97266 10.59C6.26133 10.59 6.43076 10.7355 6.56787 11.0461C6.85586 11.9195 7.70635 12.4356 8.86094 12.4356C10.0492 12.4356 11.0139 11.8142 11.0139 10.8831C11.0139 10.1285 10.5522 9.77129 9.26699 9.42412L7.83848 9.02842C6.32139 8.62295 5.57373 7.9336 5.57373 6.73066C5.57373 5.19805 6.92754 4.11299 8.87979 4.11299C10.5063 4.11299 11.687 4.87305 12.0194 5.96543C12.0727 6.11699 12.0959 6.26855 12.0959 6.3834C12.0959 6.75527 11.8658 6.93819 11.5344 6.93819C11.2255 6.93819 11.0561 6.78594 10.9526 6.50537C10.6646 5.61406 9.92393 5.12588 8.82959 5.12588C7.69248 5.12588 6.85987 5.77803 6.85987 6.68447C6.85987 7.34512 7.29356 7.7374 8.35723 8.01855L9.69883 8.37988C11.4422 8.84561 12.3067 9.53633 12.3067 10.7767C12.3067 12.4241 10.9041 13.4755 8.76631 13.4755Z" fill="#ffffff"/>
 </g>
</svg>
