<?xml version="1.0" encoding="UTF-8"?>
<!--Generator: Apple Native CoreSVG 232.5-->
<!DOCTYPE svg
PUBLIC "-//W3C//DTD SVG 1.1//EN"
       "http://www.w3.org/Graphics/SVG/1.1/DTD/svg11.dtd">
<svg version="1.1" xmlns="http://www.w3.org/2000/svg" xmlns:xlink="http://www.w3.org/1999/xlink" width="20.8999" height="18.0582">
 <g>
  <rect height="18.0582" opacity="0" width="20.8999" x="0" y="0"/>
  <path d="M7.2541 17.8828L13.6458 17.8828C14.8223 17.8828 15.4972 17.1668 15.4972 16.0412L15.4972 11.4089L19.7193 11.4089C20.393 11.4089 20.8999 10.9993 20.8999 10.3782C20.8999 9.99492 20.7049 9.70156 20.4018 9.39844L11.5818 0.586621C11.1646 0.166407 10.8255 0 10.4466 0C10.0744 0 9.72852 0.166407 9.31807 0.586621L0.498145 9.39844C0.174805 9.71504 0 9.99492 0 10.3782C0 10.9993 0.506935 11.4089 1.1708 11.4089L5.40273 11.4089L5.40273 16.0412C5.40273 17.1668 6.07461 17.8828 7.2541 17.8828Z" fill="#000000" fill-opacity="0.85"/>
 </g>
</svg>
