<?xml version="1.0" encoding="UTF-8"?>
<!--Generator: Apple Native CoreSVG 232.5-->
<!DOCTYPE svg
PUBLIC "-//W3C//DTD SVG 1.1//EN"
       "http://www.w3.org/Graphics/SVG/1.1/DTD/svg11.dtd">
<svg version="1.1" xmlns="http://www.w3.org/2000/svg" xmlns:xlink="http://www.w3.org/1999/xlink" width="22.5217" height="11.4885">
 <g>
  <rect height="11.4885" opacity="0" width="22.5217" x="0" y="0"/>
  <path d="M0 9.64688C0 10.7725 0.668164 11.4885 1.84463 11.4885L20.6771 11.4885C21.8535 11.4885 22.5217 10.7725 22.5217 9.64688L22.5217 6.33223C22.5217 5.98897 22.2451 5.71241 21.9019 5.71241C21.5519 5.71241 21.2753 5.98897 21.2753 6.33223L21.2753 9.61993C21.2753 10.0327 20.9783 10.3169 20.5723 10.3169L1.94942 10.3169C1.53662 10.3169 1.24639 10.0395 1.24639 9.61993L1.24639 6.33223C1.24639 5.98897 0.969827 5.71241 0.619826 5.71241C0.276563 5.71241 0 5.98897 0 6.33223Z" fill="#000000" fill-opacity="0.85"/>
 </g>
</svg>
