<?xml version="1.0" encoding="UTF-8"?>
<!--Generator: Apple Native CoreSVG 232.5-->
<!DOCTYPE svg
PUBLIC "-//W3C//DTD SVG 1.1//EN"
       "http://www.w3.org/Graphics/SVG/1.1/DTD/svg11.dtd">
<svg version="1.1" xmlns="http://www.w3.org/2000/svg" xmlns:xlink="http://www.w3.org/1999/xlink" width="17.6818" height="17.7074">
 <g>
  <rect height="17.7074" opacity="0" width="17.6818" x="0" y="0"/>
  <path d="M2.87871 17.7074L14.8001 17.7074C16.7147 17.7074 17.6818 16.7312 17.6818 14.8526L17.6818 2.88037C17.6818 1.00186 16.7147 0.0255859 14.8001 0.0255859L2.87871 0.0255859C0.973926 0.0255859 0 0.986035 0 2.88037L0 14.8526C0 16.747 0.973926 17.7074 2.87871 17.7074Z" fill="#000000" fill-opacity="0.85"/>
  <path d="M5.99385 13.2805C5.63076 13.2805 5.37344 13.0427 5.37344 12.7059C5.37344 12.5055 5.42969 12.396 5.60449 12.1289L10.4816 5.4169L10.4816 5.34414L5.90967 5.34414C5.59404 5.34414 5.37139 5.14238 5.37139 4.81934C5.37139 4.50977 5.59404 4.3043 5.90967 4.3043L11.4351 4.3043C11.8049 4.3043 12.0592 4.55186 12.0592 4.90215C12.0592 5.10625 12.0194 5.22178 11.8483 5.45889L6.99004 12.1648L6.99004 12.2406L11.8105 12.2406C12.1262 12.2406 12.3458 12.4394 12.3458 12.7624C12.3458 13.075 12.1262 13.2805 11.8105 13.2805Z" fill="#ffffff"/>
 </g>
</svg>
